<svg width="52px" height="52px" viewBox="0 0 52 52" version="1.1" xmlns="http://www.w3.org/2000/svg">
    <g fill="none" fill-rule="evenodd">
        <g>
            <g>
                <circle id="Oval-4-Copy" fill="#C1BFBF" cx="26" cy="26" r="26"></circle>
                <path d="M27.2569576,18.7586007 C28.3976266,17.6691109 29.9431932,17 31.6451613,17 C35.1548387,17 38,19.8451613 38,23.3548387 C38,30.143719 31.0730605,34.8237931 27.7448931,36.6806142 L29.7739747,27.4035922 C29.7916205,27.2904551 29.7945783,27.2692245 29.7964489,27.2479457 C29.8009973,27.164585 29.8019175,27.1391713 29.8015382,27.1138473 C29.7982913,27.0396221 29.7961796,27.0095397 29.7927125,26.9798095 C29.7832433,26.9137737 29.7775154,26.8809105 29.7702572,26.8483622 C29.7549148,26.7862913 29.7460781,26.7551454 29.7359736,26.7243701 C29.7318099,26.7116866 29.7273093,26.6992973 29.7228088,26.6869079 C29.713111,26.6602435 29.7027579,26.6340799 29.6913306,26.6082368 C29.684707,26.5929268 29.677659,26.5778924 29.6705049,26.5629269 C29.6596648,26.5407756 29.6483128,26.5188814 29.6362366,26.497382 C29.6271869,26.4810075 29.6178003,26.4649272 29.6080953,26.4490537 C29.5958407,26.4292541 29.5831246,26.4099052 29.5698275,26.3907072 C29.5592048,26.3752788 29.5483698,26.3599882 29.5370043,26.3450422 C29.5225139,26.3258649 29.5073496,26.3072761 29.4917795,26.2888755 C29.4807234,26.2759159 29.4696674,26.2629563 29.4581497,26.2504474 C29.440241,26.2310008 29.4217273,26.2122489 29.4026831,26.1938414 C29.392363,26.1838736 29.3821119,26.1740119 29.3714363,26.1644258 C29.3499474,26.1450414 29.3277288,26.126508 29.3049424,26.1084942 C29.29547,26.1009931 29.286154,26.0936167 29.2765197,26.086447 C29.2522085,26.0682919 29.2271304,26.0511629 29.2014475,26.0347284 C29.1918897,26.0284896 29.1822946,26.0224258 29.1724874,26.0164999 C29.1470374,26.001121 29.1210327,25.9866303 29.094317,25.9729031 C29.0825288,25.9668304 29.0707033,25.9609328 29.0586471,25.9552604 C29.0341529,25.9435603 29.0092288,25.9325919 28.9836997,25.922318 C28.967687,25.9158962 28.9514938,25.9098933 28.9351759,25.9040468 C28.9130749,25.896148 28.8907747,25.8887555 28.8680633,25.8820074 C28.8470647,25.8758062 28.8259174,25.8703052 28.8046082,25.8651355 C28.792519,25.8622 28.7810216,25.8582013 28.768683,25.8555787 C28.7606323,25.8538675 28.7526209,25.8532621 28.7446205,25.8517445 C28.7217754,25.8473459 28.6987258,25.84391 28.6755328,25.8407179 C28.6550209,25.8378214 28.6344903,25.8350123 28.6139488,25.8331155 C28.5933887,25.8313063 28.5727301,25.8303907 28.5519654,25.829544 C28.5281324,25.8285025 28.5044372,25.8276731 28.4807813,25.8279497 C28.4639173,25.828115 28.4470422,25.8291927 28.4300294,25.8300581 C28.402464,25.8315158 28.3749117,25.8333422 28.3476241,25.8365052 C28.3337429,25.8381278 28.319819,25.8403814 28.3058448,25.8424415 C28.2761036,25.8468208 28.2465636,25.8519746 28.2173068,25.8583776 C28.2135884,25.8592335 27.1607589,26.1044319 25.0588183,26.5939727 L27.2569576,18.7586007 L27.2569576,18.7586007 Z M24.9909084,37.0776881 C22.1010587,35.5720467 14,30.6965676 14,23.3548387 C14,19.8451613 16.8451613,17 20.3548387,17 C21.9923825,17 23.4851411,17.6194428 24.6117828,18.636729 L22.078629,28.0600131 C22.0704018,28.1064646 22.0670588,28.1290767 22.0638908,28.151726 C22.0543621,28.2348513 22.053638,28.2541787 22.0527203,28.2735564 C22.0516065,28.2990203 22.0506863,28.3244339 22.050978,28.3497393 C22.0543125,28.4239832 22.0563553,28.4539594 22.0598912,28.4837958 C22.0693605,28.5498316 22.0750883,28.5826948 22.0823651,28.6151555 C22.097689,28.6773139 22.1064382,28.7084413 22.1166488,28.7391476 C22.1208124,28.7518312 22.1252944,28.764308 22.1297764,28.7767848 C22.1394928,28.8033618 22.1498459,28.8295253 22.1612042,28.8552623 C22.1679153,28.8705909 22.1749448,28.8857129 22.1821864,28.900697 C22.192939,28.9228296 22.2043096,28.9446364 22.2162982,28.9661172 C22.2254354,28.9825103 22.2347849,28.9987656 22.2445774,29.0146577 C22.2567444,29.0344387 22.2694792,29.0537001 22.2826198,29.0727733 C22.2934176,29.0882389 22.3042339,29.103617 22.3155994,29.1185631 C22.3300899,29.1377403 22.3451852,29.156223 22.3607554,29.1746237 C22.3717928,29.1876708 22.382955,29.2005614 22.3945415,29.2131765 C22.4123628,29.2326044 22.4308765,29.2513564 22.4499393,29.2696763 C22.4602593,29.2796441 22.4705105,29.2895058 22.4811674,29.2991794 C22.5026564,29.3185638 22.524875,29.3370972 22.5476613,29.3551111 C22.5570648,29.3625061 22.5664498,29.3699886 22.5761027,29.3770708 C22.6004139,29.3952258 22.6253858,29.4124237 22.6510688,29.4288582 C22.6607327,29.4350281 22.6703091,29.4411794 22.6801164,29.4471054 C22.7055664,29.4624843 22.7315897,29.4768875 22.7582179,29.4905961 C22.770075,29.4967748 22.781919,29.502585 22.7939566,29.5083448 C22.8184508,29.520045 22.843375,29.5310134 22.8689226,29.5411997 C22.8849167,29.547709 22.9011099,29.5537119 22.9174278,29.5595584 C22.9395475,29.5673698 22.961829,29.5748497 22.9845591,29.5815104 C23.005539,29.587799 23.0266174,29.593194 23.0479267,29.5983636 C23.0601034,29.6013177 23.0716007,29.6053164 23.0838518,29.6079205 C23.0919025,29.6096317 23.1000015,29.6102556 23.1079833,29.6118608 C23.1308283,29.6162593 23.153878,29.6196953 23.1769834,29.6228687 C23.1975829,29.6257839 23.2181134,29.6285929 23.2386735,29.6304022 C23.259215,29.632299 23.2798737,29.6332146 23.3006384,29.6340613 C23.3244714,29.6351028 23.3481665,29.6359321 23.3718224,29.6356556 C23.3887051,29.6354027 23.4055615,29.6344126 23.4224869,29.6335286 C23.4501398,29.6320895 23.4776045,29.6302445 23.5048922,29.6270814 C23.5188609,29.6254775 23.5327847,29.6232238 23.5466714,29.6211451 C23.5765188,29.6166969 23.6060402,29.6116307 23.6353155,29.6051402 C23.6390216,29.6043426 24.6918449,29.3591734 26.7937854,28.8696326 L24.9909084,37.0776881 L24.9909084,37.0776881 Z" id="ico" fill="#FFFFFF"></path>
            </g>
        </g>
    </g>
</svg>