<svg width="18" height="24" viewBox="0 0 18 24" xmlns="http://www.w3.org/2000/svg">
  <path d="M8.8176796 19.1258948c-1.4235127 0-2.5774756-1.1519661-2.5774756-2.5729399 0-.7840696.42508-1.41163.9054739-1.9581089.2618512-.2978855.2629026-.5304318.2805718-.7267201.0342872-.3819123.0466659-1.5661417.0466659-1.5661417 0-.7413791.6020779-1.3423976 1.344764-1.3423976.742686 0 1.3447639.6010185 1.3447639 1.3423976 0 0 .0123787 1.1842294.0466659 1.5661417.0176693.1962883.0187206.4288346.2805718.7267201.4803939.5464789.9054739 1.1740393.9054739 1.9581089 0 1.4209738-1.1539629 2.5729399-2.5774755 2.5729399m-5.305279-12.885317V5.7875c0-1.5253471.5383532-2.9645008 1.5159286-4.0523804C6.0337482.6161954 7.3794618.0000102 8.8176931.0000102c1.4381975 0 2.7839449.6161852 3.78933 1.7351094.9775754 1.0878796 1.5159287 2.5270333 1.5159287 4.0523804v.4530778h.1209921c1.8730447 0 3.3914152 1.5156986 3.3914152 3.3854473v10.8334313c0 1.8697148-1.5183705 3.3854472-3.3914152 3.3854472H3.3914152C1.5183705 23.8449036 0 22.3291712 0 20.4594564V9.6260251c0-1.8697487 1.5183705-3.3854473 3.3914152-3.3854473h.1209854zm2.0348491 0h6.5408529V5.7875c0-2.0711828-1.4671262-3.7562215-3.2704095-3.7562215-1.8033172 0-3.2704434 1.6850387-3.2704434 3.7562215v.4530778z" fill="#D6D6D6" fill-rule="evenodd"/>
</svg>