<svg xmlns="http://www.w3.org/2000/svg" width="216.334" height="216.666" viewBox="0 0 216.334 216.666">
  <path fill="#4DC1BE" d="M0 13.667c0 7.548 6.119 13.667 13.667 13.667h189.001c7.547 0 13.666-6.119 13.666-13.667S210.215 0 202.668 0H13.667C6.119 0 0 6.119 0 13.667zM60 108c0 7.548 6.119 13.666 13.667 13.666h129.001c7.547 0 13.666-6.118 13.666-13.666s-6.119-13.667-13.666-13.667H73.667C66.119 94.333 60 100.452 60 108zM0 203c0 7.548 6.119 13.666 13.667 13.666h189.001c7.547 0 13.666-6.118 13.666-13.666s-6.119-13.666-13.666-13.666H13.667C6.119 189.334 0 195.452 0 203z"/>
</svg>