<svg width="42px" height="42px" viewBox="0 0 42 42" version="1.1" xmlns="http://www.w3.org/2000/svg">
    <g fill="none" fill-rule="evenodd">
        <g transform="translate(-133.000000, -610.000000)">
            <g transform="translate(133.000000, 610.000000)">
                <circle id="btn" fill="#E9EAEC" cx="21" cy="21" r="21"></circle>
                <path d="M17.7112264,23.2055818 C17.3184269,22.8158997 17.3248437,22.1777344 17.7112264,21.7944182 L23.8487736,15.7055818 C24.2415731,15.3158997 24.8795827,15.3170463 25.2631264,15.697546 L25.2968736,15.7310254 C25.6851996,16.1162694 25.6880945,16.7380015 25.2859807,17.1369239 L20.5940193,21.7916475 C20.1996773,22.1828598 20.1919055,22.8094301 20.5940193,23.2083525 L25.2859807,27.8630761 C25.6803227,28.2542884 25.6804173,28.8884749 25.2968736,29.2689746 L25.2631264,29.302454 C24.8748004,29.687698 24.2351562,29.6777344 23.8487736,29.2944182 L17.7112264,23.2055818 Z" id="Back-Chevron" fill="#B4B5B6" transform="translate(21.500000, 22.500000) scale(1, -1) rotate(-270.000000) translate(-21.500000, -22.500000) "></path>
            </g>
        </g>
    </g>
</svg>